<?xml version="1.0" standalone="no"?>
<!DOCTYPE svg PUBLIC "-//W3C//DTD SVG 20010904//EN"
 "http://www.w3.org/TR/2001/REC-SVG-20010904/DTD/svg10.dtd">
<svg version="1.0" xmlns="http://www.w3.org/2000/svg"
 width="5467.000000pt" height="1132.000000pt" viewBox="0 0 5467.000000 1132.000000"
 preserveAspectRatio="xMidYMid meet">

<g transform="translate(0.000000,1132.000000) scale(0.100000,-0.100000)"
fill="#FFFFFF" stroke="none">
<path d="M49437 8634 c-4 -4 -7 -414 -7 -912 l0 -904 -50 75 c-141 211 -359
372 -589 436 -240 66 -562 44 -827 -58 -302 -117 -578 -365 -733 -662 -113
-214 -160 -410 -161 -657 0 -222 43 -410 139 -607 138 -281 350 -502 622 -644
363 -191 811 -213 1132 -56 155 76 314 218 417 372 l50 75 0 -241 0 -241 193
2 192 3 0 2010 0 2010 -186 3 c-102 1 -188 -1 -192 -4z m-807 -1649 c203 -31
352 -110 496 -265 125 -134 205 -298 251 -510 25 -119 25 -391 0 -510 -101
-467 -406 -756 -831 -786 -281 -20 -565 89 -775 298 -222 220 -322 476 -308
791 9 206 59 364 169 528 227 340 609 514 998 454z"/>
<path d="M21614 8451 l-321 -6 -41 -29 c-28 -19 -51 -47 -69 -83 l-26 -55 6
-561 c7 -560 7 -562 30 -607 16 -31 39 -54 72 -75 l49 -30 650 3 c632 2 651 3
692 23 51 24 90 72 105 131 9 32 10 185 3 605 l-9 561 -30 43 c-16 23 -48 52
-70 63 -38 20 -55 21 -380 22 -187 0 -484 -2 -661 -5z m909 -713 c3 -265 4
-484 2 -487 -3 -2 -255 -6 -560 -9 l-555 -5 -2 484 c-2 266 -2 487 0 492 2 4
252 7 556 7 l553 0 6 -482z"/>
<path d="M17213 8431 c-507 -3 -923 -8 -925 -11 -5 -8 11 -3465 18 -3697 l6
-213 171 0 170 0 -5 668 -6 669 547 6 c300 4 711 7 912 7 l366 0 145 -187 c79
-104 310 -403 512 -666 203 -263 374 -481 380 -483 6 -2 100 -3 209 -2 l197 3
-93 120 c-207 267 -447 578 -692 895 -142 184 -264 342 -271 351 -12 14 -3 19
84 43 201 57 373 158 513 302 165 171 257 348 311 597 30 139 33 457 5 587
-71 330 -233 586 -482 762 -154 110 -361 192 -571 229 -151 26 -286 28 -1501
20z m1496 -349 c45 -12 113 -34 150 -48 395 -156 623 -542 582 -987 -18 -186
-64 -323 -157 -463 -118 -178 -288 -296 -510 -353 -176 -46 -232 -48 -1470
-55 l-661 -3 -7 959 c-3 528 -4 964 0 969 3 6 365 8 997 6 989 -3 992 -3 1076
-25z"/>
<path d="M26791 8429 c-570 -55 -1101 -407 -1400 -929 -74 -129 -152 -306
-186 -424 -115 -403 -110 -837 16 -1220 202 -614 703 -1101 1293 -1256 61 -16
147 -35 191 -42 104 -16 427 -16 530 0 371 60 701 225 973 487 109 104 235
252 229 269 -2 6 -75 49 -163 97 l-159 87 -102 -108 c-376 -395 -882 -550
-1386 -423 -518 130 -936 569 -1076 1128 -50 202 -59 468 -22 676 85 485 376
895 795 1123 200 108 405 158 651 159 156 0 280 -20 425 -69 243 -81 502 -256
650 -438 30 -37 59 -65 66 -64 27 7 324 173 324 182 0 12 -100 136 -170 210
-30 32 -95 93 -145 134 -385 323 -847 468 -1334 421z"/>
<path d="M11751 8403 l-874 -3 7 -508 c3 -279 9 -1161 12 -1959 l7 -1453 174
0 174 0 -7 670 -7 670 204 1 c112 1 557 5 989 9 656 6 801 10 885 24 302 50
523 150 700 318 218 206 331 449 366 785 58 568 -190 1056 -659 1293 -240 121
-473 162 -887 157 -115 -1 -603 -3 -1084 -4z m1489 -339 c325 -55 574 -235
706 -509 75 -153 88 -220 88 -440 1 -168 -2 -200 -22 -274 -86 -316 -288 -530
-590 -625 -191 -60 -172 -59 -1212 -65 -525 -3 -958 -4 -962 -1 -5 4 -11 439
-15 968 l-6 962 824 3 c929 4 1069 2 1189 -19z"/>
<path d="M8713 8382 c-21 -7 -211 -308 -1193 -1894 l-215 -347 -49 77 c-45 70
-509 802 -816 1287 -239 377 -457 720 -503 793 l-47 72 -196 0 c-153 0 -194
-3 -188 -12 9 -14 326 -511 695 -1090 603 -945 909 -1427 909 -1433 0 -4 -91
-154 -203 -333 -520 -834 -647 -1040 -647 -1046 0 -4 84 -5 187 -4 l187 3 233
375 c229 368 567 912 1155 1860 162 261 364 588 450 725 507 814 590 949 595
962 4 11 -26 13 -163 12 -93 -1 -179 -4 -191 -7z"/>
<path d="M3260 8353 l-105 -4 3 -903 4 -904 -804 -6 c-441 -3 -1071 -7 -1399
-9 l-597 -2 -6 50 c-3 27 -6 436 -6 908 l0 857 -176 0 -177 0 7 -637 c3 -351
9 -1231 12 -1955 l7 -1318 172 0 171 0 -4 884 -5 883 444 6 c244 4 876 8 1404
9 l960 3 5 -885 c3 -487 6 -886 8 -887 1 -2 79 -3 173 -3 l172 0 -7 753 c-3
413 -9 1295 -12 1960 l-7 1207 -66 -2 c-36 -1 -113 -4 -171 -5z"/>
<path d="M29885 7363 c-277 -35 -544 -160 -745 -349 -234 -221 -388 -517 -437
-844 -19 -128 -13 -382 12 -509 95 -483 459 -906 905 -1055 267 -88 563 -86
835 6 98 33 264 123 355 192 265 199 460 509 532 845 31 143 33 468 4 601 -61
282 -181 512 -371 709 -264 274 -590 414 -950 409 -60 0 -123 -3 -140 -5z
m370 -402 c334 -87 617 -386 706 -746 27 -107 36 -302 19 -413 -60 -411 -351
-753 -725 -853 -115 -31 -316 -31 -437 -1 -340 84 -624 375 -714 731 -91 358
7 743 259 1019 88 96 259 205 385 247 151 49 353 55 507 16z"/>
<path d="M32880 7355 c-151 -25 -273 -74 -408 -163 -84 -54 -195 -155 -245
-222 l-27 -35 0 183 0 182 -190 0 -190 0 0 -1345 0 -1345 190 0 189 0 3 858
c4 952 0 895 73 1049 81 173 212 311 371 391 170 86 376 99 571 37 113 -36
197 -88 293 -185 88 -88 135 -157 177 -260 57 -142 56 -124 60 -1042 l4 -848
190 0 189 0 0 839 c0 904 0 896 53 1044 38 104 85 174 177 267 96 97 180 149
293 185 195 62 401 49 571 -37 186 -94 346 -283 409 -483 34 -108 37 -189 37
-1004 l0 -811 190 0 190 0 0 878 c0 952 -1 973 -56 1138 -34 103 -64 160 -135
264 -123 180 -320 338 -511 410 -230 86 -521 92 -746 16 -210 -72 -437 -244
-547 -414 -22 -34 -43 -62 -46 -62 -3 0 -26 31 -52 68 -124 181 -338 339 -557
410 -152 50 -359 65 -520 37z"/>
<path d="M37650 7355 c-151 -25 -273 -74 -408 -163 -84 -54 -195 -155 -245
-222 l-27 -35 0 183 0 182 -190 0 -190 0 0 -1345 0 -1345 190 0 189 0 3 858
c4 952 0 895 73 1049 81 173 212 311 371 391 170 86 376 99 571 37 113 -36
197 -88 293 -185 88 -88 135 -157 177 -260 57 -142 56 -124 60 -1042 l4 -848
190 0 189 0 0 839 c0 904 0 896 53 1044 38 104 85 174 177 267 96 97 180 149
293 185 195 62 401 49 571 -37 186 -94 346 -283 409 -483 34 -108 37 -189 37
-1004 l0 -811 190 0 190 0 0 878 c0 952 -1 973 -56 1138 -34 103 -64 160 -135
264 -123 180 -320 338 -511 410 -230 86 -521 92 -746 16 -210 -72 -437 -244
-547 -414 -22 -34 -43 -62 -46 -62 -3 0 -26 31 -52 68 -124 181 -338 339 -557
410 -152 50 -359 65 -520 37z"/>
<path d="M42325 7355 c-604 -94 -1079 -571 -1170 -1177 -100 -662 278 -1306
907 -1548 219 -84 520 -111 743 -65 267 55 500 232 671 512 9 14 13 -39 19
-224 l7 -243 189 0 189 0 0 1345 0 1345 -187 -2 -188 -3 4 -240 c2 -142 0
-236 -6 -230 -5 6 -27 37 -48 70 -22 33 -78 98 -125 145 -167 168 -329 259
-543 306 -99 22 -348 27 -462 9z m375 -370 c203 -31 352 -110 496 -265 125
-134 205 -298 251 -510 25 -119 25 -391 0 -510 -101 -467 -406 -756 -831 -786
-281 -20 -565 89 -775 298 -207 206 -311 452 -311 738 0 291 103 542 304 743
237 237 545 341 866 292z"/>
<path d="M45468 7356 c-255 -46 -498 -189 -651 -386 l-27 -35 0 183 0 182
-190 0 -190 0 0 -1345 0 -1345 190 0 190 0 0 823 c0 855 2 909 43 1023 59 164
188 320 342 415 186 115 427 144 641 78 250 -77 453 -289 531 -554 16 -55 18
-135 21 -922 l3 -863 190 0 190 0 -3 923 -3 922 -27 97 c-105 382 -411 688
-787 785 -120 31 -343 40 -463 19z"/>
</g>
</svg>
